<svg width="27" height="27" viewBox="0 0 27 27" fill="none" xmlns="http://www.w3.org/2000/svg">
<g clip-path="url(#clip0_503_1802)">
<path d="M14.5872 12.3411C14.5872 12.0472 14.5468 11.7629 14.4728 11.4926H27.0002V9.98416H13.5535C13.1217 9.58603 12.576 9.30556 11.9161 9.19224C11.9161 8.78431 11.9161 8.49931 11.9161 8.49884V8.47895C11.9161 8.46292 11.9474 8.45839 11.9471 8.44256C11.9217 7.56635 11.2328 6.87305 10.3507 6.87305H3.71403V9.51259C2.677 10.0522 2.03271 11.1162 2.03271 12.3411C2.03271 12.3532 2.04148 12.3651 2.04158 12.3773C2.23729 12.3543 2.44385 12.3411 2.64551 12.3411H14.5872Z" fill="white"/>
<path d="M23.8889 21.0851V21.0593C25.5859 20.7785 26.9057 19.31 26.9057 17.5177V17.4864C26.9057 15.4903 25.3192 13.8494 23.3232 13.8494H2.64528C0.64936 13.8494 -1 15.4903 -1 17.4863V17.5176C-1 19.31 0.319865 20.7784 2.01683 21.0592V21.085C2.01683 21.6418 2.18295 22.1634 2.44438 22.6123C2.97119 23.517 3.96637 24.1255 5.08863 24.1255H20.8799C22.0021 24.1255 22.9659 23.517 23.4927 22.6124C23.7542 22.1635 23.8889 21.6419 23.8889 21.0851ZM15.5391 22.5463C14.6926 22.5463 14.0066 21.8603 14.0066 21.0138C14.0066 20.1673 14.6926 19.4812 15.5391 19.4812C16.3856 19.4812 17.0721 20.1673 17.0721 21.0138C17.072 21.8603 16.3856 22.5463 15.5391 22.5463ZM8.8214 21.0138C8.8214 20.1673 9.50745 19.4812 10.354 19.4812C11.2005 19.4812 11.8869 20.1673 11.8869 21.0138C11.8869 21.8603 11.2006 22.5463 10.354 22.5463C9.50745 22.5463 8.8214 21.8603 8.8214 21.0138ZM3.63622 21.0138C3.63622 20.1673 4.32226 19.4812 5.16877 19.4812C6.01527 19.4812 6.7017 20.1673 6.7017 21.0138C6.7017 21.8603 6.01537 22.5463 5.16877 22.5463C4.32226 22.5463 3.63622 21.8603 3.63622 21.0138ZM20.7243 22.5463C19.8778 22.5463 19.1918 21.8603 19.1918 21.0138C19.1918 20.1673 19.8778 19.4812 20.7243 19.4812C21.5708 19.4812 22.2573 20.1673 22.2573 21.0138C22.2572 21.8603 21.5708 22.5463 20.7243 22.5463Z" fill="white"/>
</g>
<defs>
<clipPath id="clip0_503_1802">
<rect width="27" height="27" fill="white"/>
</clipPath>
</defs>
</svg>
