<svg width="23" height="18" viewBox="0 0 23 18" fill="none" xmlns="http://www.w3.org/2000/svg">
<path d="M13.0705 11.3393C12.5133 11.7107 11.866 11.9071 11.1987 11.9071C10.5314 11.9071 9.88416 11.7107 9.32694 11.3393L0.149126 5.22052C0.0982073 5.18658 0.0486006 5.15119 0 5.11479V15.141C0 16.2905 0.93286 17.2028 2.06183 17.2028H20.3355C21.4851 17.2028 22.3974 16.27 22.3974 15.141V5.11475C22.3487 5.15123 22.299 5.18671 22.2479 5.2207L13.0705 11.3393Z" fill="white"/>
<path d="M0.877086 4.12918L10.0549 10.248C10.4023 10.4796 10.8005 10.5954 11.1987 10.5954C11.5969 10.5954 11.9951 10.4795 12.3425 10.248L21.5203 4.12918C22.0695 3.76325 22.3974 3.15083 22.3974 2.48984C22.3974 1.3533 21.4728 0.428711 20.3363 0.428711H2.06113C0.924636 0.428755 0 1.35335 0 2.49093C0 3.15083 0.327912 3.76325 0.877086 4.12918Z" fill="white"/>
</svg>
