<svg width="23" height="23" viewBox="0 0 23 23" fill="none" xmlns="http://www.w3.org/2000/svg">
<path d="M21.0827 15.2502C19.7268 15.2502 18.3956 15.0381 17.1341 14.6212C16.5159 14.4104 15.756 14.6038 15.3787 14.9913L12.8887 16.871C10.001 15.3295 8.22222 13.5513 6.70181 10.6853L8.5262 8.26017C9.00019 7.78681 9.1702 7.09535 8.96651 6.44657C8.54783 5.17841 8.33514 3.84779 8.33514 2.49139C8.3352 1.51153 7.53803 0.714355 6.55822 0.714355H2.49134C1.51153 0.714355 0.714355 1.51153 0.714355 2.49134C0.714355 13.7225 9.85145 22.8596 21.0827 22.8596C22.0625 22.8596 22.8596 22.0624 22.8596 21.0826V17.0271C22.8596 16.0473 22.0624 15.2502 21.0827 15.2502Z" fill="white"/>
</svg>
