<svg width="24" height="24" viewBox="0 0 24 24" fill="none" xmlns="http://www.w3.org/2000/svg">
<path d="M12.0031 5.8374C8.60017 5.8374 5.84521 8.59535 5.84521 11.9953C5.84521 15.3982 8.60317 18.1532 12.0031 18.1532C15.406 18.1532 18.161 15.3952 18.161 11.9953C18.161 8.59235 15.403 5.8374 12.0031 5.8374ZM12.0031 15.9922C9.79415 15.9922 8.00618 14.2033 8.00618 11.9953C8.00618 9.78733 9.79515 7.99836 12.0031 7.99836C14.2111 7.99836 16 9.78733 16 11.9953C16.001 14.2033 14.2121 15.9922 12.0031 15.9922Z" fill="white"/>
<path d="M16.9479 0.0753853C14.74 -0.0276129 9.27107 -0.0226129 7.0611 0.0753853C5.11914 0.166384 3.40617 0.635375 2.02519 2.01635C-0.282768 4.32431 0.012227 7.43426 0.012227 11.9952C0.012227 16.6631 -0.247768 19.701 2.02519 21.974C4.34215 24.29 7.4971 23.987 12.004 23.987C16.6279 23.987 18.2239 23.99 19.8589 23.357C22.0818 22.494 23.7598 20.507 23.9238 16.9381C24.0278 14.7291 24.0218 9.26122 23.9238 7.05126C23.7258 2.83834 21.4649 0.283382 16.9479 0.0753853ZM20.4429 20.447C18.9299 21.96 16.8309 21.825 11.975 21.825C6.97511 21.825 4.97014 21.899 3.50717 20.432C1.8222 18.7551 2.12719 16.0621 2.12719 11.9792C2.12719 6.45427 1.5602 2.47534 7.1051 2.19135C8.37908 2.14635 8.75408 2.13135 11.961 2.13135L12.006 2.16135C17.3349 2.16135 21.5159 1.60336 21.7668 7.14726C21.8238 8.41224 21.8368 8.79223 21.8368 11.9942C21.8358 16.9361 21.9298 18.9531 20.4429 20.447Z" fill="white"/>
<path d="M18.4063 7.03225C19.201 7.03225 19.8452 6.388 19.8452 5.59327C19.8452 4.79855 19.201 4.1543 18.4063 4.1543C17.6115 4.1543 16.9673 4.79855 16.9673 5.59327C16.9673 6.388 17.6115 7.03225 18.4063 7.03225Z" fill="white"/>
</svg>
