<svg width="21" height="29" viewBox="0 0 21 29" fill="none" xmlns="http://www.w3.org/2000/svg">
<path d="M10.5903 0.42627C4.93334 0.42627 0.331055 5.02855 0.331055 10.6855C0.331055 17.7059 9.5121 28.0124 9.903 28.4477C10.2702 28.8566 10.9112 28.8559 11.2777 28.4477C11.6686 28.0124 20.8496 17.7059 20.8496 10.6855C20.8495 5.02855 16.2473 0.42627 10.5903 0.42627ZM10.5903 15.8472C7.74416 15.8472 5.42869 13.5317 5.42869 10.6855C5.42869 7.83932 7.74421 5.52385 10.5903 5.52385C13.4365 5.52385 15.7519 7.83937 15.7519 10.6856C15.7519 13.5317 13.4365 15.8472 10.5903 15.8472Z" fill="white"/>
</svg>
