<svg width="14" height="12" viewBox="0 0 14 12" fill="none" xmlns="http://www.w3.org/2000/svg">
<path d="M11.882 0.488846C11.3187 0.178488 10.6725 0 9.98314 0C8.76683 0 7.67758 0.554268 6.95833 1.4234C6.23569 0.554268 5.14746 0 3.92949 0C3.24178 0 2.5968 0.178488 2.03218 0.488846C0.820775 1.15974 0 2.4496 0 3.93194C0 4.35632 0.0690563 4.76331 0.194132 5.14406C0.868656 8.17606 6.95833 12 6.95833 12C6.95833 12 13.044 8.17614 13.7195 5.14406C13.8445 4.76331 13.9143 4.35576 13.9143 3.93194C13.9143 2.45016 13.0935 1.16068 11.882 0.488846Z" fill="#FFC149"/>
</svg>
