<svg width="27" height="27" viewBox="0 0 27 27" fill="none" xmlns="http://www.w3.org/2000/svg">
<g clip-path="url(#clip0_503_1780)">
<path d="M13.0869 6.17827C13.0869 5.35692 12.6887 4.57749 11.9897 4.1034C11.3589 3.66987 10.9613 2.97631 10.9045 2.21987C11.4516 2.16011 11.8791 1.69367 11.8791 1.13162V0.0971912C11.8791 -0.506714 11.3858 -1 10.7819 -1H7.90576C7.30185 -1 6.80851 -0.506714 6.80851 0.0971912V1.13162C6.80851 1.69367 7.23604 2.16011 7.78313 2.21987C7.75923 2.56668 7.66056 2.89854 7.50208 3.20049C7.31375 3.55625 7.0387 3.86721 6.69483 4.1034C6.01021 4.56978 5.60059 5.34713 5.60059 6.17827V9.73901H13.0868V6.17827H13.0869Z" fill="white"/>
<path d="M14.7047 9.73864H21.575C21.7095 9.38882 21.7963 9.05996 21.8292 8.80587C22.0569 7.07968 20.2622 5.74064 18.6451 6.53667C18.7258 6.17196 18.8843 5.81019 19.2041 5.66967C19.4314 5.571 19.533 5.3079 19.4343 5.08066C19.3357 4.85341 19.0726 4.7488 18.8453 4.84747C18.1039 5.16737 17.8258 5.94171 17.7302 6.58747C16.1727 5.70563 14.2091 6.98572 14.4504 8.80582C14.4835 9.05996 14.5701 9.38588 14.7047 9.73864Z" fill="white"/>
<path d="M27.9518 17.7667L24.5167 10.9113C24.4969 10.8814 24.466 10.7798 24.3612 10.7199C24.3513 10.7002 24.2233 10.6362 24.1041 10.6362H2.89511C2.82148 10.6362 2.72253 10.66 2.64697 10.7139C2.54207 10.7663 2.5035 10.8814 2.48254 10.9113L-0.952616 17.7667C-1.06324 17.9879 -0.973573 18.257 -0.752334 18.3677C-0.686574 18.4006 -0.620814 18.4155 -0.552052 18.4155C-0.387623 18.4155 -0.229142 18.3259 -0.15143 18.1674L2.44663 12.9862V26.0572C2.44663 27.1275 3.31964 28.0005 4.38993 28.0005H22.6092C23.6796 28.0005 24.5525 27.1275 24.5525 26.0572V12.9802L27.1506 18.1673C27.2283 18.3258 27.3868 18.4155 27.5512 18.4155C27.62 18.4155 27.6887 18.4005 27.7515 18.3676C27.9728 18.257 28.0624 17.9879 27.9518 17.7667ZM21.7121 24.2634C21.7121 24.7587 21.3106 25.1603 20.8152 25.1603H16.8628C16.3675 25.1603 15.9659 24.7587 15.9659 24.2634V21.519C15.9659 21.0236 16.3675 20.6221 16.8628 20.6221H20.8152C21.3106 20.6221 21.7121 21.0237 21.7121 21.519V24.2634Z" fill="white"/>
</g>
<defs>
<clipPath id="clip0_503_1780">
<rect width="27" height="27" fill="white"/>
</clipPath>
</defs>
</svg>
