<svg width="67" height="89" viewBox="0 0 67 89" fill="none" xmlns="http://www.w3.org/2000/svg">
<path d="M60.3502 82.9789C58.7791 87.7346 40.5367 89.0873 33.4946 88.9957C26.1498 88.9957 19.2547 88.2844 14.0802 86.9924C8.58776 85.6214 6.63884 83.9734 6.63884 82.9785C6.51028 81.5687 11.044 78.8055 21.8988 77.5986C32.6164 87.8604 35.8924 86.4929 45.4058 77.6362C56.0272 78.8583 60.4795 81.5931 60.3502 82.9789ZM13.5941 65.1056C5.08203 53.4306 0 41.5568 0 33.343C1.75374 -11.1127 65.2353 -11.116 66.9892 33.343C67.5304 46.9875 47.5496 79.7326 33.6637 83.048C31.5761 83.0069 28.5246 81.1297 24.8641 77.8846C21.2299 74.6279 17.2274 70.0887 13.5941 65.1056ZM8.2534 33.343C9.57797 66.8519 57.4179 66.8424 58.7379 33.343C57.4107 -0.167604 9.57188 -0.153844 8.2534 33.343Z" fill="#FFC149"/>
</svg>
