<svg width="741" height="494" viewBox="0 0 741 494" fill="none" xmlns="http://www.w3.org/2000/svg">
<g opacity="0.5" filter="url(#filter0_d_503_2025)">
<mask id="path-1-inside-1_503_2025" fill="white">
<path fill="#ffffff" d="M4.03598 252.794C4.03598 250.82 4.03598 248.845 4.03598 246.87C3.64103 241.472 6.53737 237.786 10.7502 234.758C11.8034 233.968 11.9351 232.915 12.1984 231.73C13.5149 225.543 14.3048 219.092 19.3076 214.484C20.0975 213.694 20.2291 212.772 20.4924 211.851C21.019 208.823 23.2571 207.901 25.4952 210.008C26.8117 211.193 27.9966 211.719 29.7081 211.456C30.7613 211.193 31.6828 211.851 32.8677 212.377C32.8677 210.139 31.4195 209.349 30.103 208.56C26.6801 206.321 25.7585 205.005 27.2067 201.187C28.9181 196.711 27.7333 192.498 26.5484 188.285C26.4168 187.89 26.2851 187.495 26.0218 187.232C23.5204 184.994 23.9154 182.887 25.6269 180.254C28.7865 175.647 32.2094 171.302 35.3691 166.826C40.1085 160.112 44.9796 153.529 50.1141 147.341C53.0104 143.787 56.565 140.496 60.3829 137.599C62.8843 135.756 64.9907 133.386 66.5705 130.622C67.2288 129.437 68.1503 128.779 69.3352 128.252C71.5733 127.33 73.8114 126.804 76.1811 126.935C78.5508 127.067 79.8673 125.882 80.6572 123.776C82.1054 119.826 83.2903 115.877 81.3155 111.664C80.5256 109.952 79.3407 108.373 78.2875 106.924C77.1027 105.345 76.7077 103.765 77.4976 102.053C78.4192 100.342 79.8673 99.2886 82.1054 99.5519C78.4192 97.5771 77.7609 93.3643 74.8646 90.8629C75.2595 88.3615 72.8898 86.7817 72.7581 84.5436C72.6265 82.4372 71.4416 80.989 69.9935 79.8042C68.8086 78.8826 67.887 77.6977 67.6237 76.1179C67.4921 75.328 66.9655 74.8014 66.3072 74.4064C64.0691 72.9583 63.2792 71.3785 64.3324 69.0087C65.649 66.1124 65.1224 63.4794 63.9375 60.8463C63.5425 59.7931 63.2792 58.8715 63.8058 57.8183C64.3324 56.5018 64.2008 55.0536 63.8058 53.7371C63.5425 52.5523 62.226 51.4991 63.2792 50.3142C64.3324 49.1293 65.649 48.3394 67.2288 47.8128C70.915 46.3646 74.0747 48.2078 77.366 49.3926C77.6293 49.5243 77.8926 49.7876 78.1559 50.0509C79.604 51.894 80.2623 52.1573 81.7105 50.3142C83.8169 47.5495 86.5816 45.9697 89.4779 44.3899C90.6628 43.7316 91.1894 42.81 90.9261 41.4935C90.3995 38.7288 92.1109 36.7541 93.2958 34.6476C93.9541 33.4628 95.2706 33.1995 96.5871 33.1995C99.2201 33.0678 101.722 32.8045 104.223 32.0146C104.618 31.883 105.013 31.7513 105.408 31.7513C109.752 33.0678 113.965 30.5664 118.441 31.3563C119.626 31.6196 120.548 30.5664 121.601 30.0398C124.366 28.46 127.262 27.2751 130.553 27.5384C131.343 27.5384 132.133 27.8018 132.923 28.1967C135.556 29.9082 138.321 30.9614 141.612 29.5132C143.323 28.855 145.167 30.0398 147.01 30.3031C148.326 30.4348 149.379 30.6981 150.564 29.3816C151.881 27.9334 153.724 28.46 155.04 29.5132C156.225 30.3031 157.41 30.9614 158.727 30.3031C161.491 28.9866 163.861 30.1715 165.836 31.6196C169.127 34.121 172.813 34.2527 176.631 33.3311C177.816 33.0678 178.343 33.3311 178.606 34.516C178.869 35.8325 179.528 36.7541 180.581 37.544C181.371 38.0706 182.029 38.0706 182.819 37.6756C186.11 35.8325 189.928 36.3591 192.561 39.1238C195.063 41.6252 197.564 41.8885 200.724 40.7036C203.752 39.6504 206.911 40.177 210.071 40.4403C211.256 40.572 211.387 41.6252 211.387 42.5467C211.519 44.7848 210.992 47.0229 213.494 48.4711C214.284 48.9977 213.889 49.9192 213.757 50.8408C216.785 50.1825 219.681 49.6559 222.446 49.261C225.474 48.866 228.897 50.0509 231.662 51.894C232.847 52.6839 232.452 54.2637 231.925 55.5803C231.662 56.3702 230.74 57.0284 231.003 58.3449C232.452 56.8968 233.505 55.4486 233.242 53.3422C232.847 50.3142 235.085 48.6027 237.718 49.9192C239.429 50.8408 241.536 51.1041 242.852 52.6839C243.379 53.3422 243.905 52.8156 244.432 52.6839C245.485 52.1573 246.275 51.3674 246.933 50.3142C247.46 49.5243 247.986 48.7344 248.776 48.0761C252.199 45.1798 252.989 45.4431 254.306 49.6559C254.701 51.1041 255.886 52.1573 256.807 53.3422C257.334 54.1321 257.992 53.6055 258.519 53.2105C260.362 51.4991 262.205 52.1573 264.443 52.4206C268.393 52.9472 269.709 55.1853 269.972 58.6082C269.972 59.0032 270.104 59.3982 270.631 59.6615C271.552 59.3982 271.684 58.4766 271.947 57.6867C273.659 53.8688 276.555 51.894 280.768 52.1573C281.953 52.1573 282.611 51.7624 283.269 50.8408C283.927 50.0509 284.454 49.261 285.376 48.7344C287.614 47.2862 289.588 47.8128 290.642 50.1825C291.168 51.4991 291.827 52.8156 293.011 53.6055C294.196 54.527 294.196 55.8436 294.065 57.0284C293.67 59.7931 295.908 61.3729 296.698 63.611C297.093 64.6642 298.146 63.4794 298.936 63.611C300.91 64.006 301.7 62.9528 302.095 61.2413C302.49 59.9248 303.149 59.2665 304.86 59.1348C306.572 59.0032 308.02 57.2917 309.731 56.6335C312.496 55.5803 313.286 55.8436 313.812 58.8716C314.076 60.8463 315.129 60.7147 316.314 60.0564C319.078 58.4766 322.106 57.95 325.266 57.8183C325.529 57.8183 325.793 57.8183 326.056 57.8183C330.532 55.9752 333.033 59.1349 335.93 61.5046C336.061 61.6362 336.193 61.8995 336.456 62.0312C338.694 63.0844 338.958 64.7959 338.431 67.034C337.905 68.7454 338.694 69.9303 340.669 70.0619C341.722 70.1936 342.381 70.7202 343.171 71.5101C343.961 72.4317 344.882 72.8266 345.277 71.1152C345.409 70.3252 346.067 69.9303 346.462 69.272C347.12 67.9555 347.384 66.7706 346.199 65.5858C345.409 64.9275 344.75 64.006 344.882 62.9527C345.145 60.583 344.356 58.6082 343.302 56.5018C342.776 55.4486 342.249 54.2637 341.986 52.9472C341.196 49.3926 342.512 46.4963 345.145 44.2582C345.409 43.9949 346.199 43.7316 346.067 43.4683C345.145 41.0986 347.384 39.6504 347.91 37.9389C348.7 35.7009 350.675 33.7261 352.255 31.7513C354.493 29.2499 357.257 27.1435 358.047 23.5889C358.837 19.9026 359.627 19.5077 363.445 19.6393C363.708 19.6393 363.972 19.6393 364.235 19.5077C367.263 18.3228 369.896 18.3228 372.397 20.6926C373.319 21.6141 373.977 21.2192 374.372 20.166C375.03 18.4545 376.61 17.5329 377.927 16.4797C378.848 15.6898 380.033 15.5581 381.218 16.0847C385.431 17.7962 389.907 17.6646 394.383 17.9279C397.806 18.0595 401.229 18.1912 403.467 21.3508C404.257 22.5357 405.837 22.6673 407.153 21.8774C408.47 21.0875 409.918 20.5609 411.498 20.0343C414.131 18.9811 415.842 16.2164 415.447 13.3201C415.447 13.0568 415.184 12.7935 415.316 12.5302C416.501 10.0288 416.632 7.26409 416.764 4.63105C416.896 3.18288 418.475 3.05123 419.792 3.31454C423.873 3.70949 427.954 4.2361 431.246 7.26409C432.562 8.5806 434.274 7.79069 435.722 7.39574C436.643 7.13244 437.697 6.60583 438.618 7.13243C440.988 8.44895 442.568 7.13244 444.016 5.55262C444.937 4.63105 445.727 3.84114 447.044 3.57784C448.229 3.31454 448.887 2.39297 449.545 1.33976C450.072 0.549851 450.862 -0.371711 451.783 0.154896C454.943 2.39297 458.234 0.813154 461.526 0.944806C462.974 0.944806 464.553 1.20811 465.343 2.26132C466.66 3.97279 467.976 3.44619 469.161 2.65628C471.136 1.33976 473.374 1.33976 475.612 1.07646C476.402 0.944806 477.455 0.944806 477.719 1.47141C479.035 4.10445 482.326 4.89436 483.116 7.92235C483.38 8.84391 483.775 9.63382 484.565 10.1604C486.934 11.6086 487.856 14.2416 489.567 16.2164C490.357 17.138 490.226 18.1912 489.831 19.2444C488.777 22.404 489.831 24.6421 492.069 27.1435C494.833 30.3031 497.993 32.8045 500.889 35.7008C502.864 37.6756 502.864 40.7036 502.996 43.3366C503.127 44.9165 501.548 45.9697 499.968 46.1013C496.808 46.3646 493.912 47.6812 491.015 47.8128C492.464 49.261 493.648 50.9724 494.965 52.6839C495.36 53.2105 495.492 54.0004 496.018 54.3954C498.388 56.6335 498.125 58.8716 496.413 61.2413C495.228 62.8211 495.36 64.006 497.203 65.1908C499.573 66.7706 499.573 68.0872 497.861 70.3252C497.73 70.5885 497.466 70.7202 497.335 70.8518C496.808 71.6418 495.755 72.3 496.413 73.2216C497.071 74.0115 497.861 72.9583 498.52 72.5633C499.441 71.9051 500.363 72.1684 501.416 72.4317C503.786 73.2216 506.024 73.4849 508.525 73.0899C510.763 72.695 511.948 73.6165 512.606 75.9863C513.001 77.3028 513.66 77.6977 514.976 77.5661C517.214 77.3028 519.321 76.6445 521.295 75.4597C524.06 73.7482 527.088 74.4064 529.984 74.5381C531.433 74.6697 532.222 75.9863 531.696 77.5661C530.906 80.1991 533.012 82.0423 533.276 84.412C533.407 85.3335 534.461 84.9386 534.987 84.6753C537.225 83.6221 539.068 84.6753 540.78 85.7285C542.886 86.9134 543.018 88.8881 541.306 90.7313C539.99 92.0478 539.727 93.2326 541.175 94.6808C542.886 96.3923 542.096 99.0253 543.018 101C543.281 101.527 543.018 102.317 543.544 102.58C545.914 104.028 545.519 106.135 545.124 108.373C544.993 109.294 545.388 109.952 545.651 110.742C546.178 112.585 545.519 113.902 543.676 114.165C542.623 114.297 542.755 114.955 542.886 115.482C543.413 118.773 543.544 122.196 547.757 123.249C549.206 123.644 549.469 125.092 549.469 126.541C549.469 128.252 549.995 129.569 551.839 129.832C553.55 130.095 554.472 129.305 555.13 127.594C556.051 125.092 558.553 124.829 560.791 124.829C562.371 124.829 563.951 124.697 565.53 124.434C569.085 123.776 571.981 124.829 573.956 127.857C575.141 129.7 577.116 131.017 578.037 133.123C578.564 134.308 579.749 133.65 580.275 132.991C581.855 131.28 583.303 131.412 584.883 132.991C585.541 133.65 586.463 134.045 587.385 134.176C589.359 134.571 590.807 135.493 590.807 137.863C591.334 135.624 593.177 135.23 594.625 134.308C598.18 132.202 601.734 130.358 606.211 130.358C610.16 130.358 614.373 129.568 617.138 126.146C617.664 125.487 618.454 125.224 619.376 125.224C620.824 125.092 622.272 124.697 623.72 124.171C625.827 123.381 626.748 124.171 626.485 126.409C625.958 130.885 626.222 131.412 630.566 132.728C632.014 133.255 632.804 133.913 632.541 135.624C631.883 139.442 632.804 142.734 635.569 145.63C637.149 147.341 639.387 147.868 641.23 148.921C642.678 149.843 644.126 150.633 644.785 152.213C645.443 153.792 646.891 154.714 648.076 155.899C649.261 157.084 650.446 156.162 651.499 155.636C652.552 155.109 652.42 154.187 652.157 153.266C652.025 152.739 651.894 152.344 651.762 151.818C651.236 148.263 651.894 147.605 655.448 147.605C655.58 147.605 655.843 147.605 655.975 147.605C660.056 147.473 660.056 147.473 661.504 151.028C661.636 151.423 661.768 151.949 662.163 152.081C663.874 152.739 665.586 153.134 667.297 154.187C668.35 154.846 670.852 154.582 672.431 153.003C673.616 151.818 675.986 153.266 676.249 155.241C676.644 158.532 678.224 160.243 681.515 160.638C683.227 160.902 684.412 161.428 684.675 163.14C684.807 164.193 685.333 164.193 686.255 163.93C688.23 163.271 690.073 162.745 691.521 160.902C693.364 158.664 694.549 158.795 696.129 161.297C696.787 162.481 697.314 163.535 697.577 164.983C697.972 167.353 700.078 168.932 702.316 168.011C705.871 166.431 708.504 168.932 711.664 169.064C712.585 169.064 712.585 169.986 712.585 170.775C712.585 173.935 713.638 176.437 716.93 177.49C717.72 177.753 718.246 178.411 718.904 178.938C720.221 179.991 721.801 180.123 722.986 178.938C724.302 177.621 726.014 177.226 727.725 177.095C728.515 176.963 729.437 177.095 730.227 176.831C733.386 175.778 733.518 176.963 734.703 179.596C735.229 180.781 734.966 181.703 733.913 182.361C733.65 182.492 733.386 182.756 733.123 182.887C729.173 185.389 729.042 187.495 732.728 190.523C734.703 192.103 736.809 193.551 736.019 196.579C735.888 196.974 736.283 197.369 736.414 197.764C737.599 201.055 737.072 201.45 734.044 203.03C730.49 204.873 727.594 207.638 726.145 211.587C725.487 213.431 724.434 214.221 722.591 213.694C720.484 213.036 718.773 214.747 716.535 214.879C717.456 215.405 718.246 215.932 718.51 216.722C719.431 219.882 721.933 220.671 724.697 221.198C725.487 221.33 725.882 221.066 726.409 220.54C727.462 219.223 728.778 218.96 730.095 220.145C731.411 221.33 731.938 223.568 731.016 224.884C730.095 226.201 729.042 227.517 727.857 228.702C726.804 229.755 725.619 230.019 724.302 229.36C723.512 228.965 722.591 228.702 721.801 228.307C721.274 228.044 720.484 227.781 720.221 228.439C719.563 230.414 717.588 231.73 717.456 233.837C717.325 235.548 716.93 237.128 716.271 238.444C716.535 238.971 716.798 238.971 717.193 238.971C721.669 239.234 722.854 240.288 722.986 244.632C723.117 246.607 723.512 248.318 724.697 249.635C726.277 251.215 726.277 252.926 726.277 254.769C726.277 255.033 726.277 255.428 726.145 255.691C726.014 256.086 725.619 256.086 725.355 256.349C725.75 256.217 726.014 256.086 726.409 255.954C726.672 255.822 727.067 255.822 727.33 255.822C728.383 256.744 728.647 258.061 729.173 259.377C729.963 261.878 729.042 262.8 727.067 264.643C724.961 266.618 723.117 269.383 723.776 272.674C724.039 274.122 723.907 275.175 722.196 275.439C721.011 275.57 721.406 276.36 721.406 277.15C721.143 280.441 720.879 283.733 718.773 286.497C717.72 287.814 716.666 288.472 714.955 288.077C712.98 287.682 711.005 287.287 709.162 288.209C708.636 288.472 707.846 288.34 707.188 288.077C707.056 287.945 706.924 287.945 706.793 287.814C705.081 286.761 702.843 288.472 701 286.102C699.683 284.523 696.787 286.497 694.681 286.892C693.364 287.156 692.179 287.419 690.994 286.892C689.283 286.102 687.44 285.971 685.465 285.707C681.515 285.181 681.647 285.839 680.331 289.657C679.804 291.105 679.541 292.685 679.277 294.265C679.014 295.976 678.093 296.898 676.381 296.634C675.328 296.503 674.538 296.898 673.748 297.556C672.432 298.741 670.852 299.136 669.009 299.268C665.717 299.531 662.689 300.716 660.583 303.612C659.925 304.534 659.793 305.455 660.056 306.377C660.32 307.562 660.451 308.615 660.451 309.8C660.451 313.354 660.451 313.354 658.081 315.592C658.081 315.724 658.213 315.856 658.476 315.856C659.661 316.119 661.373 315.461 661.636 317.172C661.899 318.884 661.899 320.858 660.188 321.912C658.608 322.965 657.95 324.281 657.818 326.256C657.555 328.889 656.238 331.127 654 332.707C653.21 333.365 652.025 333.892 651.236 333.102C649.919 331.654 648.339 332.049 646.891 331.785C643.468 331.127 640.177 331.522 636.886 332.444C636.096 332.707 635.174 332.97 634.384 332.575C630.303 330.996 628.065 333.497 625.827 336.262C624.247 338.236 623.062 340.475 621.614 342.318C620.692 343.503 619.639 344.819 617.928 345.082C616.216 345.346 615.69 344.687 616.348 342.976C616.611 342.318 617.138 341.791 616.48 341.264C615.821 340.738 615.163 341.001 614.636 341.396C611.872 343.108 608.844 344.292 605.947 345.741C603.709 346.794 602.656 348.9 601.735 351.138C600.813 353.376 600.023 355.614 598.443 357.458C597.917 357.984 597.522 358.642 596.732 358.774C595.679 359.037 594.362 358.906 593.704 357.984C592.914 356.931 594.23 356.536 594.757 355.878C595.547 354.825 597.39 354.298 596.6 352.455C595.942 350.743 593.835 350.085 591.729 350.348C584.883 351.533 579.485 354.825 576.589 361.539C575.536 363.777 574.219 366.015 571.586 366.805C570.533 367.068 569.348 367.331 568.822 366.147C568.163 364.83 568.822 364.04 570.006 363.382C571.455 362.592 572.903 361.802 573.693 360.222C574.088 359.432 574.351 358.642 573.824 357.853C573.298 357.063 572.508 356.931 571.586 357.063C570.665 357.194 569.743 357.458 568.822 357.326C562.371 356.536 557.5 359.301 553.287 363.909C551.312 366.015 549.337 367.858 546.573 368.911C543.544 370.096 541.965 372.861 540.253 375.494C538.278 378.39 536.435 381.55 534.724 384.709C532.617 388.791 528.668 389.844 524.85 391.16C523.665 391.555 523.27 390.765 523.007 389.712C522.744 388.001 524.06 385.763 526.035 384.709C526.43 384.446 526.825 384.183 527.22 384.183C531.432 384.051 533.012 380.76 534.724 377.864C534.987 377.337 535.25 376.81 535.382 376.284C535.514 375.362 534.856 374.704 534.197 374.177C533.539 373.651 533.144 374.441 532.749 374.704C532.222 375.099 531.696 375.494 531.433 376.152C529.984 379.18 527.483 380.76 524.323 381.418C523.534 381.55 522.612 381.681 521.954 382.076C520.374 382.866 519.321 384.051 519.584 386.026C520.9 398.138 525.508 409.065 532.617 418.939C535.25 422.625 537.752 426.311 540.78 429.603C541.57 430.524 542.36 431.314 543.281 431.972C544.993 433.552 546.573 433.289 548.679 432.762C553.023 431.709 554.603 428.418 556.71 425.258C557.631 423.942 558.553 423.152 560.133 423.415C561.581 423.678 561.844 424.6 561.844 425.916C561.844 427.496 563.161 428.155 564.477 428.418C565.925 428.681 566.715 427.891 566.979 426.706C567.373 425.39 568.295 424.6 569.48 424.205C573.429 422.757 577.247 422.362 581.328 423.547C583.83 424.337 586.331 425.258 588.964 425.258C590.676 425.258 592.651 427.76 592.782 429.603C592.782 431.051 591.202 432.894 589.623 433.289C585.41 434.342 582.908 439.345 584.488 443.426C585.936 447.112 584.752 449.219 580.934 450.009C579.09 450.404 577.247 450.667 575.404 451.457C573.561 452.247 571.455 451.457 569.48 451.062C567.9 450.799 566.584 450.799 565.135 451.589C563.424 452.51 561.317 452.378 559.343 452.905C558.026 453.168 557.105 451.983 556.446 450.93C555.13 448.561 552.892 447.244 550.39 446.322C548.284 445.533 546.309 445.928 544.466 446.981C543.281 447.639 541.965 448.429 543.544 450.009C543.808 450.272 544.071 450.799 543.808 450.93C542.096 451.852 542.228 453.827 541.306 455.275C540.78 456.196 539.727 455.933 538.805 455.538C537.489 454.88 536.962 455.538 535.909 456.328C533.539 458.171 531.959 460.146 530.643 462.911C529.721 464.885 527.483 465.017 525.772 463.7C524.587 462.779 523.402 462.516 522.085 463.042C520.9 463.437 519.847 463.174 518.662 463.306C513.265 463.832 508.657 466.07 504.312 469.23C502.074 470.81 501.548 473.706 500.363 476.076C499.704 477.392 498.915 478.051 497.598 478.972C495.228 480.552 492.2 481.21 490.884 484.106C490.489 485.028 489.567 485.555 488.382 485.555C482.59 485.686 476.797 485.686 471.004 485.555C469.951 485.555 469.03 485.16 468.635 484.106C468.108 482.527 466.923 482 465.475 481.868C462.052 481.605 460.472 478.972 458.366 476.866C456.654 475.023 458.629 473.048 460.736 472.258C464.027 471.073 464.554 470.678 464.29 467.387C464.027 464.095 464.159 461.199 466.397 458.303C467.713 456.591 466.923 453.958 466.528 451.72C466.002 448.692 464.685 445.927 462.184 443.821C460.472 442.373 458.893 442.373 457.181 443.558C455.47 444.874 454.153 444.348 452.442 443.426C448.624 441.583 446.649 438.028 443.753 435.395C441.646 433.552 439.54 431.972 436.512 432.236C435.064 432.367 433.747 432.631 432.562 433.552C430.851 435 429.008 435.264 427.033 434.342C426.374 434.079 425.585 433.947 424.926 433.684C421.635 432.762 420.582 429.603 422.557 426.706C424.268 424.073 426.769 422.23 429.534 420.914C432.431 419.466 435.064 417.622 437.433 415.384C440.198 412.751 443.621 411.303 446.912 409.46C447.965 408.933 448.755 408.275 449.019 406.959C449.677 404.589 450.467 404.326 452.442 405.774C453.363 406.564 454.153 406.564 455.206 406.037C455.601 405.774 456.259 405.642 456.523 405.379C459.551 402.219 463.632 401.298 467.318 399.586C468.24 399.06 469.293 399.454 470.083 399.059C470.215 398.928 470.215 398.928 470.215 398.928C470.083 398.928 469.951 399.059 469.82 399.059C467.713 398.928 467.187 398.006 467.318 395.768C467.45 393.135 467.581 390.37 467.45 387.606C467.845 389.581 465.607 391.029 466.265 393.004C466.265 393.135 466.133 393.267 466.002 393.398C464.422 394.452 462.579 393.135 460.999 394.188C460.472 394.583 459.814 393.53 459.287 392.872C458.497 391.687 457.708 390.502 455.865 391.16C455.601 391.292 455.206 391.16 454.943 391.029C454.021 390.634 453.89 389.712 453.626 388.791C452.968 389.844 452.178 389.844 451.257 389.186C449.282 387.737 447.439 387.737 445.464 388.922C444.147 389.712 442.568 389.581 441.12 389.449C437.96 389.317 434.669 388.791 431.509 389.712C430.851 389.844 430.061 389.712 429.534 389.449C429.139 389.449 429.403 389.976 429.403 389.581C429.403 389.449 429.402 389.449 429.666 389.449C430.982 389.712 432.299 389.712 433.615 390.239C434.274 390.502 435.064 390.502 435.853 390.239C440.066 388.132 443.621 390.897 447.439 392.082C448.097 392.214 448.624 392.74 448.492 393.53C448.36 394.188 447.702 394.32 447.176 394.583C444.279 395.9 441.251 395.11 438.355 394.583C429.929 393.004 421.635 391.292 413.604 388.264C412.419 387.869 411.235 387.342 411.103 385.894C410.971 385.368 410.708 384.973 410.181 384.709C407.548 383.656 405.442 381.681 402.809 380.365C399.913 379.048 397.411 380.102 394.778 379.97C394.12 379.838 393.725 379.312 393.33 378.917C391.882 376.547 392.277 375.099 394.515 373.914C395.7 373.256 396.885 373.124 398.069 373.124C399.254 373.124 400.439 372.992 401.492 372.466C402.282 371.939 403.336 371.544 403.204 370.623C403.072 369.57 401.887 370.096 401.097 369.964C399.123 369.57 397.411 368.516 395.436 367.99C394.646 367.726 393.462 367.068 393.593 368.78C393.725 370.886 392.013 370.754 391.355 370.096C388.196 367.2 383.588 365.357 382.798 360.354C382.535 358.642 381.086 358.906 380.296 359.301C377.137 361.275 373.846 359.959 370.686 359.564C369.633 359.432 368.579 359.564 367.526 359.827C363.445 360.617 359.89 362.987 355.678 363.514C354.624 363.645 354.624 364.435 354.888 365.225C356.073 369.043 355.151 372.203 352.386 374.967C351.86 375.494 351.465 376.284 351.07 377.074C347.91 383.92 343.171 389.581 338.694 395.637C331.717 404.852 322.106 410.776 313.681 418.281C313.154 418.807 312.496 419.202 311.969 419.729C309.863 421.835 309.863 422.23 312.759 423.02C314.076 423.415 314.866 424.205 314.602 425.521C314.076 429.734 314.471 434.079 313.681 438.292C313.286 440.003 312.101 440.53 310.653 440.925C309.336 441.188 308.546 440.398 307.888 439.213C307.493 438.423 307.361 437.502 307.493 436.58C308.02 433.816 306.703 431.972 304.728 430.393C300.91 427.365 294.46 427.233 290.247 429.866C288.14 431.182 285.639 431.709 283.532 433.157C282.743 433.684 282.084 434.079 281.558 435C280.373 437.238 279.715 437.37 277.74 436.185C275.37 434.869 275.37 434.869 274.975 437.502C274.712 439.213 272.342 440.398 269.841 439.871C266.154 439.082 262.6 438.028 259.177 436.58C255.227 434.869 252.594 432.236 251.409 428.155C251.278 427.496 250.883 426.97 250.225 426.575C248.25 425.653 248.645 424.337 249.566 422.888C250.225 421.835 250.883 421.045 251.673 420.124C252.858 418.939 254.174 418.412 255.754 419.202C256.807 419.729 257.992 419.597 259.177 419.597C259.967 419.729 260.23 420.124 260.362 420.914C260.493 420.255 260.098 419.729 259.967 419.202C259.967 418.807 259.967 418.281 260.23 418.017C261.81 416.701 261.81 415.384 260.098 414.199C259.44 413.804 259.704 413.015 259.835 412.356C260.493 409.723 263.258 408.407 264.18 405.905C264.18 405.774 264.443 405.642 264.575 405.774C267.076 406.432 268.261 404.72 269.841 403.272C270.894 402.219 271.421 401.561 271.026 400.244C270.762 399.323 270.762 398.401 270.762 397.48C270.762 395.505 271.684 394.452 273.527 393.925C275.238 393.53 276.95 393.267 278.661 392.74C279.846 392.345 280.373 391.687 279.583 390.502C278.135 388.791 278.925 387.342 280.11 385.894C280.504 385.368 280.899 384.841 281.426 384.315C282.216 383.393 282.348 382.603 281.163 381.945C279.056 380.497 278.266 378.785 279.583 376.284C280.636 374.441 279.451 372.597 278.793 370.754C277.476 366.542 277.476 366.278 281.294 364.172C282.611 363.514 283.927 362.724 285.507 362.724C286.429 362.724 287.087 362.329 287.745 361.67C288.535 360.749 289.72 360.617 290.905 360.354C292.09 360.091 292.88 360.486 293.011 361.67C293.275 363.119 294.065 364.435 293.67 366.015C293.538 366.542 293.143 366.936 293.143 367.726C293.275 367.068 293.538 366.673 293.801 366.147C294.855 363.119 295.249 362.987 297.883 364.435C298.409 364.698 298.804 364.698 299.199 364.435C300.516 363.514 301.832 364.172 302.359 365.225C303.544 367.331 305.782 368.648 307.23 370.886C307.098 368.648 308.151 367.463 309.863 366.41C312.101 364.962 313.681 365.093 314.997 367.463C315.392 368.121 315.655 368.78 316.05 369.438C316.709 370.491 317.499 371.018 318.552 369.964C319.737 368.911 321.053 369.701 322.501 369.57C320.658 368.78 319.737 367.068 318.288 365.883C316.445 364.435 316.182 362.592 317.63 360.749C321.053 356.009 320.658 349.558 316.577 345.609C315.787 344.819 314.866 345.082 314.076 345.214C312.364 345.609 311.311 345.082 310.784 343.503C309.994 341.133 307.493 341.396 305.782 340.606C303.412 339.553 302.885 338.763 304.202 336.525C304.992 335.34 304.597 333.892 305.123 332.707C303.017 332.839 301.042 331.127 300.91 329.021C300.91 328.099 301.174 327.309 302.095 327.046C303.675 326.388 303.807 325.335 303.543 323.886C303.149 322.175 302.754 320.463 304.333 319.015C304.992 318.489 304.465 317.435 304.333 316.119C303.412 318.094 302.359 319.41 300.516 319.805C299.067 320.2 297.751 319.805 297.356 318.62C296.698 316.251 294.591 314.802 293.933 312.433C290.773 313.881 287.219 311.774 287.482 308.22C287.614 306.772 286.692 306.113 286.165 305.192C284.981 302.822 284.981 302.427 287.219 301.111C288.009 300.584 288.535 300.057 288.799 299.004C289.457 296.24 288.667 293.212 289.983 290.447C289.983 290.315 289.983 290.184 289.983 290.184C288.14 286.892 289.72 282.943 288.009 279.783C286.429 281.363 284.849 281.758 282.479 280.705C281.426 280.31 280.636 279.783 279.451 280.178C278.661 280.441 278.003 279.783 277.608 279.256C275.897 277.282 274.054 275.044 273.79 272.674C273.659 269.646 272.079 270.304 270.499 270.304C269.182 270.436 268.393 269.514 267.339 269.119C266.418 268.724 265.496 267.934 264.575 268.724C263.653 269.514 263.126 270.567 263.39 271.884C263.521 272.542 264.18 273.464 263.39 273.99C262.6 274.649 261.678 274.122 260.757 273.727C258.65 272.937 257.86 271.094 257.334 269.119C256.017 269.778 254.569 270.831 253.121 269.251C251.278 267.145 253.384 265.828 254.306 264.38C253.253 263.985 252.594 264.643 251.936 265.038C250.488 265.828 249.04 265.96 248.118 264.38C247.723 263.722 247.328 263.853 246.67 263.985C244.432 264.248 243.379 263.458 243.51 261.22C243.642 259.245 242.72 258.587 241.141 258.587C238.771 258.456 237.059 257.139 235.875 255.296C234.163 252.663 232.188 250.688 228.634 251.478C227.449 251.741 226.264 251.346 225.342 250.688C223.631 249.635 222.183 250.293 221.261 251.741C220.076 253.716 218.365 253.979 216.522 253.189C215.074 252.663 214.679 253.189 214.415 254.374C214.02 255.822 212.967 256.349 211.519 255.954C209.413 255.164 207.043 256.349 205.068 254.769C204.541 254.374 204.278 255.164 203.883 255.427C200.592 257.666 198.485 257.402 195.852 254.638C195.194 253.848 194.404 253.321 192.956 253.848C194.668 254.901 196.116 255.822 195.721 258.061C195.326 260.43 193.746 261.352 191.64 260.43C188.743 259.114 188.48 259.245 187.822 262.142C187.295 264.643 185.057 265.17 183.214 265.565C181.107 265.96 179.264 267.276 177.026 267.408C175.315 267.539 174.657 269.514 173.998 271.094C173.077 273.727 170.97 275.57 169.654 277.94C168.864 279.388 166.757 279.651 164.914 279.52C160.965 279.52 157.279 280.441 153.461 281.626C152.539 281.889 151.486 282.284 150.564 282.153C145.825 281.495 141.217 282.943 136.478 283.338C133.186 283.601 130.817 285.312 129.5 288.209C128.315 290.842 126.472 292.685 123.971 294.001C121.338 295.45 118.573 295.055 115.808 294.923C114.887 294.791 114.623 293.87 114.097 293.212C112.912 290.973 111.595 288.867 108.699 288.209C106.856 287.814 105.934 286.234 105.408 284.391C104.881 282.284 103.565 281.363 101.458 281.363C100.668 281.363 99.7467 281.231 98.9568 281.1C98.2986 280.836 97.6403 281.1 97.1137 281.626C94.349 284.391 90.9261 284.654 87.3715 283.996C85.3967 283.601 83.5536 283.469 81.9738 282.021C80.6573 280.968 78.8141 281.363 77.2343 281.889C74.9962 282.811 73.2848 282.548 71.9682 280.31C71.4416 279.256 70.3884 278.993 69.2036 279.125C68.4137 279.256 67.4921 279.651 66.7022 279.388C64.3324 278.335 62.226 278.203 60.2512 280.178C59.7246 280.705 58.6714 280.31 57.8815 279.915C54.8535 278.335 51.6939 277.018 49.7191 273.99C49.1925 273.069 48.2709 272.674 47.2177 272.806C46.1645 272.937 46.1645 273.99 45.9012 274.649C44.848 277.808 43.2682 278.993 40.1085 278.73C39.3186 278.598 39.3186 278.993 39.0553 279.388C38.1338 280.836 36.2906 281.231 34.7108 280.441C32.3411 279.256 31.8145 278.203 32.4727 276.228C32.8677 275.175 33.2627 274.254 32.2094 273.595C31.0246 272.806 30.103 271.226 28.2599 272.279C26.9434 272.937 25.7585 272.806 24.442 272.411C22.8622 271.884 21.6773 271.226 21.5457 269.251C21.414 267.408 20.6241 265.696 19.0443 264.511C18.1227 263.853 17.0695 263.458 16.0163 263.853C14.1732 264.643 13.3833 263.59 12.5933 262.273C11.2768 259.772 10.3553 257.139 8.24884 255.033C7.45893 254.111 7.06397 253.321 5.74746 253.979C4.82589 254.243 4.29929 253.716 4.03598 252.794Z"/>
</mask>
<path d="M4.03598 252.794C4.03598 250.82 4.03598 248.845 4.03598 246.87C3.64103 241.472 6.53737 237.786 10.7502 234.758C11.8034 233.968 11.9351 232.915 12.1984 231.73C13.5149 225.543 14.3048 219.092 19.3076 214.484C20.0975 213.694 20.2291 212.772 20.4924 211.851C21.019 208.823 23.2571 207.901 25.4952 210.008C26.8117 211.193 27.9966 211.719 29.7081 211.456C30.7613 211.193 31.6828 211.851 32.8677 212.377C32.8677 210.139 31.4195 209.349 30.103 208.56C26.6801 206.321 25.7585 205.005 27.2067 201.187C28.9181 196.711 27.7333 192.498 26.5484 188.285C26.4168 187.89 26.2851 187.495 26.0218 187.232C23.5204 184.994 23.9154 182.887 25.6269 180.254C28.7865 175.647 32.2094 171.302 35.3691 166.826C40.1085 160.112 44.9796 153.529 50.1141 147.341C53.0104 143.787 56.565 140.496 60.3829 137.599C62.8843 135.756 64.9907 133.386 66.5705 130.622C67.2288 129.437 68.1503 128.779 69.3352 128.252C71.5733 127.33 73.8114 126.804 76.1811 126.935C78.5508 127.067 79.8673 125.882 80.6572 123.776C82.1054 119.826 83.2903 115.877 81.3155 111.664C80.5256 109.952 79.3407 108.373 78.2875 106.924C77.1027 105.345 76.7077 103.765 77.4976 102.053C78.4192 100.342 79.8673 99.2886 82.1054 99.5519C78.4192 97.5771 77.7609 93.3643 74.8646 90.8629C75.2595 88.3615 72.8898 86.7817 72.7581 84.5436C72.6265 82.4372 71.4416 80.989 69.9935 79.8042C68.8086 78.8826 67.887 77.6977 67.6237 76.1179C67.4921 75.328 66.9655 74.8014 66.3072 74.4064C64.0691 72.9583 63.2792 71.3785 64.3324 69.0087C65.649 66.1124 65.1224 63.4794 63.9375 60.8463C63.5425 59.7931 63.2792 58.8715 63.8058 57.8183C64.3324 56.5018 64.2008 55.0536 63.8058 53.7371C63.5425 52.5523 62.226 51.4991 63.2792 50.3142C64.3324 49.1293 65.649 48.3394 67.2288 47.8128C70.915 46.3646 74.0747 48.2078 77.366 49.3926C77.6293 49.5243 77.8926 49.7876 78.1559 50.0509C79.604 51.894 80.2623 52.1573 81.7105 50.3142C83.8169 47.5495 86.5816 45.9697 89.4779 44.3899C90.6628 43.7316 91.1894 42.81 90.9261 41.4935C90.3995 38.7288 92.1109 36.7541 93.2958 34.6476C93.9541 33.4628 95.2706 33.1995 96.5871 33.1995C99.2201 33.0678 101.722 32.8045 104.223 32.0146C104.618 31.883 105.013 31.7513 105.408 31.7513C109.752 33.0678 113.965 30.5664 118.441 31.3563C119.626 31.6196 120.548 30.5664 121.601 30.0398C124.366 28.46 127.262 27.2751 130.553 27.5384C131.343 27.5384 132.133 27.8018 132.923 28.1967C135.556 29.9082 138.321 30.9614 141.612 29.5132C143.323 28.855 145.167 30.0398 147.01 30.3031C148.326 30.4348 149.379 30.6981 150.564 29.3816C151.881 27.9334 153.724 28.46 155.04 29.5132C156.225 30.3031 157.41 30.9614 158.727 30.3031C161.491 28.9866 163.861 30.1715 165.836 31.6196C169.127 34.121 172.813 34.2527 176.631 33.3311C177.816 33.0678 178.343 33.3311 178.606 34.516C178.869 35.8325 179.528 36.7541 180.581 37.544C181.371 38.0706 182.029 38.0706 182.819 37.6756C186.11 35.8325 189.928 36.3591 192.561 39.1238C195.063 41.6252 197.564 41.8885 200.724 40.7036C203.752 39.6504 206.911 40.177 210.071 40.4403C211.256 40.572 211.387 41.6252 211.387 42.5467C211.519 44.7848 210.992 47.0229 213.494 48.4711C214.284 48.9977 213.889 49.9192 213.757 50.8408C216.785 50.1825 219.681 49.6559 222.446 49.261C225.474 48.866 228.897 50.0509 231.662 51.894C232.847 52.6839 232.452 54.2637 231.925 55.5803C231.662 56.3702 230.74 57.0284 231.003 58.3449C232.452 56.8968 233.505 55.4486 233.242 53.3422C232.847 50.3142 235.085 48.6027 237.718 49.9192C239.429 50.8408 241.536 51.1041 242.852 52.6839C243.379 53.3422 243.905 52.8156 244.432 52.6839C245.485 52.1573 246.275 51.3674 246.933 50.3142C247.46 49.5243 247.986 48.7344 248.776 48.0761C252.199 45.1798 252.989 45.4431 254.306 49.6559C254.701 51.1041 255.886 52.1573 256.807 53.3422C257.334 54.1321 257.992 53.6055 258.519 53.2105C260.362 51.4991 262.205 52.1573 264.443 52.4206C268.393 52.9472 269.709 55.1853 269.972 58.6082C269.972 59.0032 270.104 59.3982 270.631 59.6615C271.552 59.3982 271.684 58.4766 271.947 57.6867C273.659 53.8688 276.555 51.894 280.768 52.1573C281.953 52.1573 282.611 51.7624 283.269 50.8408C283.927 50.0509 284.454 49.261 285.376 48.7344C287.614 47.2862 289.588 47.8128 290.642 50.1825C291.168 51.4991 291.827 52.8156 293.011 53.6055C294.196 54.527 294.196 55.8436 294.065 57.0284C293.67 59.7931 295.908 61.3729 296.698 63.611C297.093 64.6642 298.146 63.4794 298.936 63.611C300.91 64.006 301.7 62.9528 302.095 61.2413C302.49 59.9248 303.149 59.2665 304.86 59.1348C306.572 59.0032 308.02 57.2917 309.731 56.6335C312.496 55.5803 313.286 55.8436 313.812 58.8716C314.076 60.8463 315.129 60.7147 316.314 60.0564C319.078 58.4766 322.106 57.95 325.266 57.8183C325.529 57.8183 325.793 57.8183 326.056 57.8183C330.532 55.9752 333.033 59.1349 335.93 61.5046C336.061 61.6362 336.193 61.8995 336.456 62.0312C338.694 63.0844 338.958 64.7959 338.431 67.034C337.905 68.7454 338.694 69.9303 340.669 70.0619C341.722 70.1936 342.381 70.7202 343.171 71.5101C343.961 72.4317 344.882 72.8266 345.277 71.1152C345.409 70.3252 346.067 69.9303 346.462 69.272C347.12 67.9555 347.384 66.7706 346.199 65.5858C345.409 64.9275 344.75 64.006 344.882 62.9527C345.145 60.583 344.356 58.6082 343.302 56.5018C342.776 55.4486 342.249 54.2637 341.986 52.9472C341.196 49.3926 342.512 46.4963 345.145 44.2582C345.409 43.9949 346.199 43.7316 346.067 43.4683C345.145 41.0986 347.384 39.6504 347.91 37.9389C348.7 35.7009 350.675 33.7261 352.255 31.7513C354.493 29.2499 357.257 27.1435 358.047 23.5889C358.837 19.9026 359.627 19.5077 363.445 19.6393C363.708 19.6393 363.972 19.6393 364.235 19.5077C367.263 18.3228 369.896 18.3228 372.397 20.6926C373.319 21.6141 373.977 21.2192 374.372 20.166C375.03 18.4545 376.61 17.5329 377.927 16.4797C378.848 15.6898 380.033 15.5581 381.218 16.0847C385.431 17.7962 389.907 17.6646 394.383 17.9279C397.806 18.0595 401.229 18.1912 403.467 21.3508C404.257 22.5357 405.837 22.6673 407.153 21.8774C408.47 21.0875 409.918 20.5609 411.498 20.0343C414.131 18.9811 415.842 16.2164 415.447 13.3201C415.447 13.0568 415.184 12.7935 415.316 12.5302C416.501 10.0288 416.632 7.26409 416.764 4.63105C416.896 3.18288 418.475 3.05123 419.792 3.31454C423.873 3.70949 427.954 4.2361 431.246 7.26409C432.562 8.5806 434.274 7.79069 435.722 7.39574C436.643 7.13244 437.697 6.60583 438.618 7.13243C440.988 8.44895 442.568 7.13244 444.016 5.55262C444.937 4.63105 445.727 3.84114 447.044 3.57784C448.229 3.31454 448.887 2.39297 449.545 1.33976C450.072 0.549851 450.862 -0.371711 451.783 0.154896C454.943 2.39297 458.234 0.813154 461.526 0.944806C462.974 0.944806 464.553 1.20811 465.343 2.26132C466.66 3.97279 467.976 3.44619 469.161 2.65628C471.136 1.33976 473.374 1.33976 475.612 1.07646C476.402 0.944806 477.455 0.944806 477.719 1.47141C479.035 4.10445 482.326 4.89436 483.116 7.92235C483.38 8.84391 483.775 9.63382 484.565 10.1604C486.934 11.6086 487.856 14.2416 489.567 16.2164C490.357 17.138 490.226 18.1912 489.831 19.2444C488.777 22.404 489.831 24.6421 492.069 27.1435C494.833 30.3031 497.993 32.8045 500.889 35.7008C502.864 37.6756 502.864 40.7036 502.996 43.3366C503.127 44.9165 501.548 45.9697 499.968 46.1013C496.808 46.3646 493.912 47.6812 491.015 47.8128C492.464 49.261 493.648 50.9724 494.965 52.6839C495.36 53.2105 495.492 54.0004 496.018 54.3954C498.388 56.6335 498.125 58.8716 496.413 61.2413C495.228 62.8211 495.36 64.006 497.203 65.1908C499.573 66.7706 499.573 68.0872 497.861 70.3252C497.73 70.5885 497.466 70.7202 497.335 70.8518C496.808 71.6418 495.755 72.3 496.413 73.2216C497.071 74.0115 497.861 72.9583 498.52 72.5633C499.441 71.9051 500.363 72.1684 501.416 72.4317C503.786 73.2216 506.024 73.4849 508.525 73.0899C510.763 72.695 511.948 73.6165 512.606 75.9863C513.001 77.3028 513.66 77.6977 514.976 77.5661C517.214 77.3028 519.321 76.6445 521.295 75.4597C524.06 73.7482 527.088 74.4064 529.984 74.5381C531.433 74.6697 532.222 75.9863 531.696 77.5661C530.906 80.1991 533.012 82.0423 533.276 84.412C533.407 85.3335 534.461 84.9386 534.987 84.6753C537.225 83.6221 539.068 84.6753 540.78 85.7285C542.886 86.9134 543.018 88.8881 541.306 90.7313C539.99 92.0478 539.727 93.2326 541.175 94.6808C542.886 96.3923 542.096 99.0253 543.018 101C543.281 101.527 543.018 102.317 543.544 102.58C545.914 104.028 545.519 106.135 545.124 108.373C544.993 109.294 545.388 109.952 545.651 110.742C546.178 112.585 545.519 113.902 543.676 114.165C542.623 114.297 542.755 114.955 542.886 115.482C543.413 118.773 543.544 122.196 547.757 123.249C549.206 123.644 549.469 125.092 549.469 126.541C549.469 128.252 549.995 129.569 551.839 129.832C553.55 130.095 554.472 129.305 555.13 127.594C556.051 125.092 558.553 124.829 560.791 124.829C562.371 124.829 563.951 124.697 565.53 124.434C569.085 123.776 571.981 124.829 573.956 127.857C575.141 129.7 577.116 131.017 578.037 133.123C578.564 134.308 579.749 133.65 580.275 132.991C581.855 131.28 583.303 131.412 584.883 132.991C585.541 133.65 586.463 134.045 587.385 134.176C589.359 134.571 590.807 135.493 590.807 137.863C591.334 135.624 593.177 135.23 594.625 134.308C598.18 132.202 601.734 130.358 606.211 130.358C610.16 130.358 614.373 129.568 617.138 126.146C617.664 125.487 618.454 125.224 619.376 125.224C620.824 125.092 622.272 124.697 623.72 124.171C625.827 123.381 626.748 124.171 626.485 126.409C625.958 130.885 626.222 131.412 630.566 132.728C632.014 133.255 632.804 133.913 632.541 135.624C631.883 139.442 632.804 142.734 635.569 145.63C637.149 147.341 639.387 147.868 641.23 148.921C642.678 149.843 644.126 150.633 644.785 152.213C645.443 153.792 646.891 154.714 648.076 155.899C649.261 157.084 650.446 156.162 651.499 155.636C652.552 155.109 652.42 154.187 652.157 153.266C652.025 152.739 651.894 152.344 651.762 151.818C651.236 148.263 651.894 147.605 655.448 147.605C655.58 147.605 655.843 147.605 655.975 147.605C660.056 147.473 660.056 147.473 661.504 151.028C661.636 151.423 661.768 151.949 662.163 152.081C663.874 152.739 665.586 153.134 667.297 154.187C668.35 154.846 670.852 154.582 672.431 153.003C673.616 151.818 675.986 153.266 676.249 155.241C676.644 158.532 678.224 160.243 681.515 160.638C683.227 160.902 684.412 161.428 684.675 163.14C684.807 164.193 685.333 164.193 686.255 163.93C688.23 163.271 690.073 162.745 691.521 160.902C693.364 158.664 694.549 158.795 696.129 161.297C696.787 162.481 697.314 163.535 697.577 164.983C697.972 167.353 700.078 168.932 702.316 168.011C705.871 166.431 708.504 168.932 711.664 169.064C712.585 169.064 712.585 169.986 712.585 170.775C712.585 173.935 713.638 176.437 716.93 177.49C717.72 177.753 718.246 178.411 718.904 178.938C720.221 179.991 721.801 180.123 722.986 178.938C724.302 177.621 726.014 177.226 727.725 177.095C728.515 176.963 729.437 177.095 730.227 176.831C733.386 175.778 733.518 176.963 734.703 179.596C735.229 180.781 734.966 181.703 733.913 182.361C733.65 182.492 733.386 182.756 733.123 182.887C729.173 185.389 729.042 187.495 732.728 190.523C734.703 192.103 736.809 193.551 736.019 196.579C735.888 196.974 736.283 197.369 736.414 197.764C737.599 201.055 737.072 201.45 734.044 203.03C730.49 204.873 727.594 207.638 726.145 211.587C725.487 213.431 724.434 214.221 722.591 213.694C720.484 213.036 718.773 214.747 716.535 214.879C717.456 215.405 718.246 215.932 718.51 216.722C719.431 219.882 721.933 220.671 724.697 221.198C725.487 221.33 725.882 221.066 726.409 220.54C727.462 219.223 728.778 218.96 730.095 220.145C731.411 221.33 731.938 223.568 731.016 224.884C730.095 226.201 729.042 227.517 727.857 228.702C726.804 229.755 725.619 230.019 724.302 229.36C723.512 228.965 722.591 228.702 721.801 228.307C721.274 228.044 720.484 227.781 720.221 228.439C719.563 230.414 717.588 231.73 717.456 233.837C717.325 235.548 716.93 237.128 716.271 238.444C716.535 238.971 716.798 238.971 717.193 238.971C721.669 239.234 722.854 240.288 722.986 244.632C723.117 246.607 723.512 248.318 724.697 249.635C726.277 251.215 726.277 252.926 726.277 254.769C726.277 255.033 726.277 255.428 726.145 255.691C726.014 256.086 725.619 256.086 725.355 256.349C725.75 256.217 726.014 256.086 726.409 255.954C726.672 255.822 727.067 255.822 727.33 255.822C728.383 256.744 728.647 258.061 729.173 259.377C729.963 261.878 729.042 262.8 727.067 264.643C724.961 266.618 723.117 269.383 723.776 272.674C724.039 274.122 723.907 275.175 722.196 275.439C721.011 275.57 721.406 276.36 721.406 277.15C721.143 280.441 720.879 283.733 718.773 286.497C717.72 287.814 716.666 288.472 714.955 288.077C712.98 287.682 711.005 287.287 709.162 288.209C708.636 288.472 707.846 288.34 707.188 288.077C707.056 287.945 706.924 287.945 706.793 287.814C705.081 286.761 702.843 288.472 701 286.102C699.683 284.523 696.787 286.497 694.681 286.892C693.364 287.156 692.179 287.419 690.994 286.892C689.283 286.102 687.44 285.971 685.465 285.707C681.515 285.181 681.647 285.839 680.331 289.657C679.804 291.105 679.541 292.685 679.277 294.265C679.014 295.976 678.093 296.898 676.381 296.634C675.328 296.503 674.538 296.898 673.748 297.556C672.432 298.741 670.852 299.136 669.009 299.268C665.717 299.531 662.689 300.716 660.583 303.612C659.925 304.534 659.793 305.455 660.056 306.377C660.32 307.562 660.451 308.615 660.451 309.8C660.451 313.354 660.451 313.354 658.081 315.592C658.081 315.724 658.213 315.856 658.476 315.856C659.661 316.119 661.373 315.461 661.636 317.172C661.899 318.884 661.899 320.858 660.188 321.912C658.608 322.965 657.95 324.281 657.818 326.256C657.555 328.889 656.238 331.127 654 332.707C653.21 333.365 652.025 333.892 651.236 333.102C649.919 331.654 648.339 332.049 646.891 331.785C643.468 331.127 640.177 331.522 636.886 332.444C636.096 332.707 635.174 332.97 634.384 332.575C630.303 330.996 628.065 333.497 625.827 336.262C624.247 338.236 623.062 340.475 621.614 342.318C620.692 343.503 619.639 344.819 617.928 345.082C616.216 345.346 615.69 344.687 616.348 342.976C616.611 342.318 617.138 341.791 616.48 341.264C615.821 340.738 615.163 341.001 614.636 341.396C611.872 343.108 608.844 344.292 605.947 345.741C603.709 346.794 602.656 348.9 601.735 351.138C600.813 353.376 600.023 355.614 598.443 357.458C597.917 357.984 597.522 358.642 596.732 358.774C595.679 359.037 594.362 358.906 593.704 357.984C592.914 356.931 594.23 356.536 594.757 355.878C595.547 354.825 597.39 354.298 596.6 352.455C595.942 350.743 593.835 350.085 591.729 350.348C584.883 351.533 579.485 354.825 576.589 361.539C575.536 363.777 574.219 366.015 571.586 366.805C570.533 367.068 569.348 367.331 568.822 366.147C568.163 364.83 568.822 364.04 570.006 363.382C571.455 362.592 572.903 361.802 573.693 360.222C574.088 359.432 574.351 358.642 573.824 357.853C573.298 357.063 572.508 356.931 571.586 357.063C570.665 357.194 569.743 357.458 568.822 357.326C562.371 356.536 557.5 359.301 553.287 363.909C551.312 366.015 549.337 367.858 546.573 368.911C543.544 370.096 541.965 372.861 540.253 375.494C538.278 378.39 536.435 381.55 534.724 384.709C532.617 388.791 528.668 389.844 524.85 391.16C523.665 391.555 523.27 390.765 523.007 389.712C522.744 388.001 524.06 385.763 526.035 384.709C526.43 384.446 526.825 384.183 527.22 384.183C531.432 384.051 533.012 380.76 534.724 377.864C534.987 377.337 535.25 376.81 535.382 376.284C535.514 375.362 534.856 374.704 534.197 374.177C533.539 373.651 533.144 374.441 532.749 374.704C532.222 375.099 531.696 375.494 531.433 376.152C529.984 379.18 527.483 380.76 524.323 381.418C523.534 381.55 522.612 381.681 521.954 382.076C520.374 382.866 519.321 384.051 519.584 386.026C520.9 398.138 525.508 409.065 532.617 418.939C535.25 422.625 537.752 426.311 540.78 429.603C541.57 430.524 542.36 431.314 543.281 431.972C544.993 433.552 546.573 433.289 548.679 432.762C553.023 431.709 554.603 428.418 556.71 425.258C557.631 423.942 558.553 423.152 560.133 423.415C561.581 423.678 561.844 424.6 561.844 425.916C561.844 427.496 563.161 428.155 564.477 428.418C565.925 428.681 566.715 427.891 566.979 426.706C567.373 425.39 568.295 424.6 569.48 424.205C573.429 422.757 577.247 422.362 581.328 423.547C583.83 424.337 586.331 425.258 588.964 425.258C590.676 425.258 592.651 427.76 592.782 429.603C592.782 431.051 591.202 432.894 589.623 433.289C585.41 434.342 582.908 439.345 584.488 443.426C585.936 447.112 584.752 449.219 580.934 450.009C579.09 450.404 577.247 450.667 575.404 451.457C573.561 452.247 571.455 451.457 569.48 451.062C567.9 450.799 566.584 450.799 565.135 451.589C563.424 452.51 561.317 452.378 559.343 452.905C558.026 453.168 557.105 451.983 556.446 450.93C555.13 448.561 552.892 447.244 550.39 446.322C548.284 445.533 546.309 445.928 544.466 446.981C543.281 447.639 541.965 448.429 543.544 450.009C543.808 450.272 544.071 450.799 543.808 450.93C542.096 451.852 542.228 453.827 541.306 455.275C540.78 456.196 539.727 455.933 538.805 455.538C537.489 454.88 536.962 455.538 535.909 456.328C533.539 458.171 531.959 460.146 530.643 462.911C529.721 464.885 527.483 465.017 525.772 463.7C524.587 462.779 523.402 462.516 522.085 463.042C520.9 463.437 519.847 463.174 518.662 463.306C513.265 463.832 508.657 466.07 504.312 469.23C502.074 470.81 501.548 473.706 500.363 476.076C499.704 477.392 498.915 478.051 497.598 478.972C495.228 480.552 492.2 481.21 490.884 484.106C490.489 485.028 489.567 485.555 488.382 485.555C482.59 485.686 476.797 485.686 471.004 485.555C469.951 485.555 469.03 485.16 468.635 484.106C468.108 482.527 466.923 482 465.475 481.868C462.052 481.605 460.472 478.972 458.366 476.866C456.654 475.023 458.629 473.048 460.736 472.258C464.027 471.073 464.554 470.678 464.29 467.387C464.027 464.095 464.159 461.199 466.397 458.303C467.713 456.591 466.923 453.958 466.528 451.72C466.002 448.692 464.685 445.927 462.184 443.821C460.472 442.373 458.893 442.373 457.181 443.558C455.47 444.874 454.153 444.348 452.442 443.426C448.624 441.583 446.649 438.028 443.753 435.395C441.646 433.552 439.54 431.972 436.512 432.236C435.064 432.367 433.747 432.631 432.562 433.552C430.851 435 429.008 435.264 427.033 434.342C426.374 434.079 425.585 433.947 424.926 433.684C421.635 432.762 420.582 429.603 422.557 426.706C424.268 424.073 426.769 422.23 429.534 420.914C432.431 419.466 435.064 417.622 437.433 415.384C440.198 412.751 443.621 411.303 446.912 409.46C447.965 408.933 448.755 408.275 449.019 406.959C449.677 404.589 450.467 404.326 452.442 405.774C453.363 406.564 454.153 406.564 455.206 406.037C455.601 405.774 456.259 405.642 456.523 405.379C459.551 402.219 463.632 401.298 467.318 399.586C468.24 399.06 469.293 399.454 470.083 399.059C470.215 398.928 470.215 398.928 470.215 398.928C470.083 398.928 469.951 399.059 469.82 399.059C467.713 398.928 467.187 398.006 467.318 395.768C467.45 393.135 467.581 390.37 467.45 387.606C467.845 389.581 465.607 391.029 466.265 393.004C466.265 393.135 466.133 393.267 466.002 393.398C464.422 394.452 462.579 393.135 460.999 394.188C460.472 394.583 459.814 393.53 459.287 392.872C458.497 391.687 457.708 390.502 455.865 391.16C455.601 391.292 455.206 391.16 454.943 391.029C454.021 390.634 453.89 389.712 453.626 388.791C452.968 389.844 452.178 389.844 451.257 389.186C449.282 387.737 447.439 387.737 445.464 388.922C444.147 389.712 442.568 389.581 441.12 389.449C437.96 389.317 434.669 388.791 431.509 389.712C430.851 389.844 430.061 389.712 429.534 389.449C429.139 389.449 429.403 389.976 429.403 389.581C429.403 389.449 429.402 389.449 429.666 389.449C430.982 389.712 432.299 389.712 433.615 390.239C434.274 390.502 435.064 390.502 435.853 390.239C440.066 388.132 443.621 390.897 447.439 392.082C448.097 392.214 448.624 392.74 448.492 393.53C448.36 394.188 447.702 394.32 447.176 394.583C444.279 395.9 441.251 395.11 438.355 394.583C429.929 393.004 421.635 391.292 413.604 388.264C412.419 387.869 411.235 387.342 411.103 385.894C410.971 385.368 410.708 384.973 410.181 384.709C407.548 383.656 405.442 381.681 402.809 380.365C399.913 379.048 397.411 380.102 394.778 379.97C394.12 379.838 393.725 379.312 393.33 378.917C391.882 376.547 392.277 375.099 394.515 373.914C395.7 373.256 396.885 373.124 398.069 373.124C399.254 373.124 400.439 372.992 401.492 372.466C402.282 371.939 403.336 371.544 403.204 370.623C403.072 369.57 401.887 370.096 401.097 369.964C399.123 369.57 397.411 368.516 395.436 367.99C394.646 367.726 393.462 367.068 393.593 368.78C393.725 370.886 392.013 370.754 391.355 370.096C388.196 367.2 383.588 365.357 382.798 360.354C382.535 358.642 381.086 358.906 380.296 359.301C377.137 361.275 373.846 359.959 370.686 359.564C369.633 359.432 368.579 359.564 367.526 359.827C363.445 360.617 359.89 362.987 355.678 363.514C354.624 363.645 354.624 364.435 354.888 365.225C356.073 369.043 355.151 372.203 352.386 374.967C351.86 375.494 351.465 376.284 351.07 377.074C347.91 383.92 343.171 389.581 338.694 395.637C331.717 404.852 322.106 410.776 313.681 418.281C313.154 418.807 312.496 419.202 311.969 419.729C309.863 421.835 309.863 422.23 312.759 423.02C314.076 423.415 314.866 424.205 314.602 425.521C314.076 429.734 314.471 434.079 313.681 438.292C313.286 440.003 312.101 440.53 310.653 440.925C309.336 441.188 308.546 440.398 307.888 439.213C307.493 438.423 307.361 437.502 307.493 436.58C308.02 433.816 306.703 431.972 304.728 430.393C300.91 427.365 294.46 427.233 290.247 429.866C288.14 431.182 285.639 431.709 283.532 433.157C282.743 433.684 282.084 434.079 281.558 435C280.373 437.238 279.715 437.37 277.74 436.185C275.37 434.869 275.37 434.869 274.975 437.502C274.712 439.213 272.342 440.398 269.841 439.871C266.154 439.082 262.6 438.028 259.177 436.58C255.227 434.869 252.594 432.236 251.409 428.155C251.278 427.496 250.883 426.97 250.225 426.575C248.25 425.653 248.645 424.337 249.566 422.888C250.225 421.835 250.883 421.045 251.673 420.124C252.858 418.939 254.174 418.412 255.754 419.202C256.807 419.729 257.992 419.597 259.177 419.597C259.967 419.729 260.23 420.124 260.362 420.914C260.493 420.255 260.098 419.729 259.967 419.202C259.967 418.807 259.967 418.281 260.23 418.017C261.81 416.701 261.81 415.384 260.098 414.199C259.44 413.804 259.704 413.015 259.835 412.356C260.493 409.723 263.258 408.407 264.18 405.905C264.18 405.774 264.443 405.642 264.575 405.774C267.076 406.432 268.261 404.72 269.841 403.272C270.894 402.219 271.421 401.561 271.026 400.244C270.762 399.323 270.762 398.401 270.762 397.48C270.762 395.505 271.684 394.452 273.527 393.925C275.238 393.53 276.95 393.267 278.661 392.74C279.846 392.345 280.373 391.687 279.583 390.502C278.135 388.791 278.925 387.342 280.11 385.894C280.504 385.368 280.899 384.841 281.426 384.315C282.216 383.393 282.348 382.603 281.163 381.945C279.056 380.497 278.266 378.785 279.583 376.284C280.636 374.441 279.451 372.597 278.793 370.754C277.476 366.542 277.476 366.278 281.294 364.172C282.611 363.514 283.927 362.724 285.507 362.724C286.429 362.724 287.087 362.329 287.745 361.67C288.535 360.749 289.72 360.617 290.905 360.354C292.09 360.091 292.88 360.486 293.011 361.67C293.275 363.119 294.065 364.435 293.67 366.015C293.538 366.542 293.143 366.936 293.143 367.726C293.275 367.068 293.538 366.673 293.801 366.147C294.855 363.119 295.249 362.987 297.883 364.435C298.409 364.698 298.804 364.698 299.199 364.435C300.516 363.514 301.832 364.172 302.359 365.225C303.544 367.331 305.782 368.648 307.23 370.886C307.098 368.648 308.151 367.463 309.863 366.41C312.101 364.962 313.681 365.093 314.997 367.463C315.392 368.121 315.655 368.78 316.05 369.438C316.709 370.491 317.499 371.018 318.552 369.964C319.737 368.911 321.053 369.701 322.501 369.57C320.658 368.78 319.737 367.068 318.288 365.883C316.445 364.435 316.182 362.592 317.63 360.749C321.053 356.009 320.658 349.558 316.577 345.609C315.787 344.819 314.866 345.082 314.076 345.214C312.364 345.609 311.311 345.082 310.784 343.503C309.994 341.133 307.493 341.396 305.782 340.606C303.412 339.553 302.885 338.763 304.202 336.525C304.992 335.34 304.597 333.892 305.123 332.707C303.017 332.839 301.042 331.127 300.91 329.021C300.91 328.099 301.174 327.309 302.095 327.046C303.675 326.388 303.807 325.335 303.543 323.886C303.149 322.175 302.754 320.463 304.333 319.015C304.992 318.489 304.465 317.435 304.333 316.119C303.412 318.094 302.359 319.41 300.516 319.805C299.067 320.2 297.751 319.805 297.356 318.62C296.698 316.251 294.591 314.802 293.933 312.433C290.773 313.881 287.219 311.774 287.482 308.22C287.614 306.772 286.692 306.113 286.165 305.192C284.981 302.822 284.981 302.427 287.219 301.111C288.009 300.584 288.535 300.057 288.799 299.004C289.457 296.24 288.667 293.212 289.983 290.447C289.983 290.315 289.983 290.184 289.983 290.184C288.14 286.892 289.72 282.943 288.009 279.783C286.429 281.363 284.849 281.758 282.479 280.705C281.426 280.31 280.636 279.783 279.451 280.178C278.661 280.441 278.003 279.783 277.608 279.256C275.897 277.282 274.054 275.044 273.79 272.674C273.659 269.646 272.079 270.304 270.499 270.304C269.182 270.436 268.393 269.514 267.339 269.119C266.418 268.724 265.496 267.934 264.575 268.724C263.653 269.514 263.126 270.567 263.39 271.884C263.521 272.542 264.18 273.464 263.39 273.99C262.6 274.649 261.678 274.122 260.757 273.727C258.65 272.937 257.86 271.094 257.334 269.119C256.017 269.778 254.569 270.831 253.121 269.251C251.278 267.145 253.384 265.828 254.306 264.38C253.253 263.985 252.594 264.643 251.936 265.038C250.488 265.828 249.04 265.96 248.118 264.38C247.723 263.722 247.328 263.853 246.67 263.985C244.432 264.248 243.379 263.458 243.51 261.22C243.642 259.245 242.72 258.587 241.141 258.587C238.771 258.456 237.059 257.139 235.875 255.296C234.163 252.663 232.188 250.688 228.634 251.478C227.449 251.741 226.264 251.346 225.342 250.688C223.631 249.635 222.183 250.293 221.261 251.741C220.076 253.716 218.365 253.979 216.522 253.189C215.074 252.663 214.679 253.189 214.415 254.374C214.02 255.822 212.967 256.349 211.519 255.954C209.413 255.164 207.043 256.349 205.068 254.769C204.541 254.374 204.278 255.164 203.883 255.427C200.592 257.666 198.485 257.402 195.852 254.638C195.194 253.848 194.404 253.321 192.956 253.848C194.668 254.901 196.116 255.822 195.721 258.061C195.326 260.43 193.746 261.352 191.64 260.43C188.743 259.114 188.48 259.245 187.822 262.142C187.295 264.643 185.057 265.17 183.214 265.565C181.107 265.96 179.264 267.276 177.026 267.408C175.315 267.539 174.657 269.514 173.998 271.094C173.077 273.727 170.97 275.57 169.654 277.94C168.864 279.388 166.757 279.651 164.914 279.52C160.965 279.52 157.279 280.441 153.461 281.626C152.539 281.889 151.486 282.284 150.564 282.153C145.825 281.495 141.217 282.943 136.478 283.338C133.186 283.601 130.817 285.312 129.5 288.209C128.315 290.842 126.472 292.685 123.971 294.001C121.338 295.45 118.573 295.055 115.808 294.923C114.887 294.791 114.623 293.87 114.097 293.212C112.912 290.973 111.595 288.867 108.699 288.209C106.856 287.814 105.934 286.234 105.408 284.391C104.881 282.284 103.565 281.363 101.458 281.363C100.668 281.363 99.7467 281.231 98.9568 281.1C98.2986 280.836 97.6403 281.1 97.1137 281.626C94.349 284.391 90.9261 284.654 87.3715 283.996C85.3967 283.601 83.5536 283.469 81.9738 282.021C80.6573 280.968 78.8141 281.363 77.2343 281.889C74.9962 282.811 73.2848 282.548 71.9682 280.31C71.4416 279.256 70.3884 278.993 69.2036 279.125C68.4137 279.256 67.4921 279.651 66.7022 279.388C64.3324 278.335 62.226 278.203 60.2512 280.178C59.7246 280.705 58.6714 280.31 57.8815 279.915C54.8535 278.335 51.6939 277.018 49.7191 273.99C49.1925 273.069 48.2709 272.674 47.2177 272.806C46.1645 272.937 46.1645 273.99 45.9012 274.649C44.848 277.808 43.2682 278.993 40.1085 278.73C39.3186 278.598 39.3186 278.993 39.0553 279.388C38.1338 280.836 36.2906 281.231 34.7108 280.441C32.3411 279.256 31.8145 278.203 32.4727 276.228C32.8677 275.175 33.2627 274.254 32.2094 273.595C31.0246 272.806 30.103 271.226 28.2599 272.279C26.9434 272.937 25.7585 272.806 24.442 272.411C22.8622 271.884 21.6773 271.226 21.5457 269.251C21.414 267.408 20.6241 265.696 19.0443 264.511C18.1227 263.853 17.0695 263.458 16.0163 263.853C14.1732 264.643 13.3833 263.59 12.5933 262.273C11.2768 259.772 10.3553 257.139 8.24884 255.033C7.45893 254.111 7.06397 253.321 5.74746 253.979C4.82589 254.243 4.29929 253.716 4.03598 252.794Z" stroke="#FFC149" stroke-width="2" shape-rendering="crispEdges" mask="url(#path-1-inside-1_503_2025)"/>
</g>
<defs>
<filter id="filter0_d_503_2025" x="0" y="0" width="741" height="493.653" filterUnits="userSpaceOnUse" color-interpolation-filters="sRGB">
<feFlood flood-opacity="0" result="BackgroundImageFix"/>
<feColorMatrix in="SourceAlpha" type="matrix" values="0 0 0 0 0 0 0 0 0 0 0 0 0 0 0 0 0 0 127 0" result="hardAlpha"/>
<feOffset dy="4"/>
<feGaussianBlur stdDeviation="2"/>
<feComposite in2="hardAlpha" operator="out"/>
<feColorMatrix type="matrix" values="0 0 0 0 0 0 0 0 0 0 0 0 0 0 0 0 0 0 0.25 0"/>
<feBlend mode="normal" in2="BackgroundImageFix" result="effect1_dropShadow_503_2025"/>
<feBlend mode="normal" in="SourceGraphic" in2="effect1_dropShadow_503_2025" result="shape"/>
</filter>
</defs>
</svg>
