<svg width="61" height="61" viewBox="0 0 61 61" fill="none" xmlns="http://www.w3.org/2000/svg">
<circle opacity="0.3" cx="30.5" cy="30.5" r="30" stroke="white"/>
<path d="M31.7822 21.8975C31.7822 21.6213 31.5584 21.3975 31.2822 21.3975C31.0061 21.3975 30.7822 21.6213 30.7822 21.8975L31.7822 21.8975ZM30.9287 39.4561C31.1239 39.6514 31.4405 39.6514 31.6358 39.4561L34.8178 36.2742C35.013 36.0789 35.013 35.7623 34.8178 35.5671C34.6225 35.3718 34.3059 35.3718 34.1107 35.5671L31.2822 38.3955L28.4538 35.5671C28.2585 35.3718 27.942 35.3718 27.7467 35.5671C27.5514 35.7623 27.5514 36.0789 27.7467 36.2742L30.9287 39.4561ZM30.7822 21.8975L30.7822 39.1026L31.7822 39.1026L31.7822 21.8975L30.7822 21.8975Z" fill="white"/>
</svg>
