<svg width="27" height="27" viewBox="0 0 27 27" fill="none" xmlns="http://www.w3.org/2000/svg">
<path d="M13.5 11.4961C15.8461 11.4961 17.748 9.59418 17.748 7.24805C17.748 4.90192 15.8461 3 13.5 3C11.1539 3 9.25195 4.90192 9.25195 7.24805C9.25195 9.59418 11.1539 11.4961 13.5 11.4961Z" fill="white"/>
<path d="M22.0938 11.4961C23.5769 11.4961 24.7793 10.2937 24.7793 8.81055C24.7793 7.32736 23.5769 6.125 22.0938 6.125C20.6106 6.125 19.4082 7.32736 19.4082 8.81055C19.4082 10.2937 20.6106 11.4961 22.0938 11.4961Z" fill="white"/>
<path d="M4.90625 11.4961C6.38944 11.4961 7.5918 10.2937 7.5918 8.81055C7.5918 7.32736 6.38944 6.125 4.90625 6.125C3.42306 6.125 2.2207 7.32736 2.2207 8.81055C2.2207 10.2937 3.42306 11.4961 4.90625 11.4961Z" fill="white"/>
<path d="M7.55225 13.9079C6.49512 13.0417 5.53775 13.1564 4.31543 13.1564C2.48731 13.1564 1 14.6349 1 16.4518V21.7843C1 22.5734 1.64404 23.215 2.43604 23.215C5.85528 23.215 5.44336 23.2769 5.44336 23.0675C5.44336 19.2889 4.9958 16.5179 7.55225 13.9079Z" fill="white"/>
<path d="M14.6629 13.1758C12.5279 12.9977 10.6722 13.1778 9.07155 14.499C6.39299 16.6445 6.90847 19.5334 6.90847 23.0674C6.90847 24.0024 7.66921 24.7773 8.61843 24.7773C18.9252 24.7773 19.3354 25.1098 19.9466 23.7564C20.147 23.2986 20.0921 23.4441 20.0921 19.0654C20.0921 15.5876 17.0807 13.1758 14.6629 13.1758Z" fill="white"/>
<path d="M22.6846 13.1563C21.4556 13.1563 20.5035 13.0428 19.4478 13.9077C21.9851 16.4984 21.5566 19.0803 21.5566 23.0674C21.5566 23.2781 21.2147 23.2149 24.5127 23.2149C25.333 23.2149 26 22.5503 26 21.7334V16.4517C26 14.6348 24.5127 13.1563 22.6846 13.1563Z" fill="white"/>
</svg>
